<svg width="20" height="20" viewBox="0 0 20 20" xmlns="http://www.w3.org/2000/svg">
  <path
    d="M9.0625 16.875C9.0625 17.1236 8.96373 17.3621 8.78791 17.5379C8.6121 17.7137 8.37364 17.8125 8.125 17.8125H3.75C3.3356 17.8125 2.93817 17.6479 2.64515 17.3549C2.35212 17.0618 2.1875 16.6644 2.1875 16.25V3.75C2.1875 3.3356 2.35212 2.93817 2.64515 2.64515C2.93817 2.35212 3.3356 2.1875 3.75 2.1875H8.125C8.37364 2.1875 8.6121 2.28627 8.78791 2.46209C8.96373 2.6379 9.0625 2.87636 9.0625 3.125C9.0625 3.37364 8.96373 3.6121 8.78791 3.78791C8.6121 3.96373 8.37364 4.0625 8.125 4.0625H4.0625V15.9375H8.125C8.37364 15.9375 8.6121 16.0363 8.78791 16.2121C8.96373 16.3879 9.0625 16.6264 9.0625 16.875ZM17.5383 9.33672L14.4133 6.21172C14.2372 6.03556 13.9982 5.93672 13.75 5.93672C13.5018 5.93672 13.2628 6.03556 13.0867 6.21172C12.9105 6.38788 12.8117 6.62684 12.8117 6.875C12.8117 7.12316 12.9105 7.36212 13.0867 7.53828L14.8367 9.28828H7.5C7.25136 9.28828 7.0129 9.38705 6.83708 9.56286C6.66127 9.73868 6.5625 9.97714 6.5625 10.2258C6.5625 10.4744 6.66127 10.7129 6.83708 10.8887C7.0129 11.0645 7.25136 11.1633 7.5 11.1633H14.8367L13.0867 12.9133C12.9105 13.0895 12.8117 13.3284 12.8117 13.5766C12.8117 13.8248 12.9105 14.0638 13.0867 14.2399C13.2628 14.4161 13.5018 14.5149 13.75 14.5149C13.9982 14.5149 14.2372 14.4161 14.4133 14.2399L17.5383 11.1149C17.7145 10.9388 17.8133 10.6998 17.8133 10.4516C17.8133 10.2034 17.7145 9.96444 17.5383 9.78828Z"
    fill="#808080"
  />
</svg>